<?xml version="1.0"?>

<svg id="GMHPT-Logo" xmlns="http://www.w3.org/2000/svg" version="1.1" width="58.62" height="16" viewBox="0 0 58.62 16" preserveAspectRatio="xMinYMin meet"> <rect id="background" width="58.62" height="16" x="0" y="0" fill="#cfd0d1" fill-opacity="1"></rect> <g id="Logo" transform="translate(15,2.5)"> <g id="Logotype" fill="#5b5f62" stroke="none" transform="matrix(1.25,0,0,1.25,-13,-0.5)"> <g id="Logotype-1"> <path d="m 13.851043,4.1342418 c -0.092,-0.3714429 -0.263149,-0.726765 -0.739021,-0.726765 -0.450668,0 -0.834544,0.4165209 -0.834544,1.3803963 0,0.9638539 0.383876,1.3805894 0.834544,1.3805894 0.601049,0 0.759795,-0.547333 0.72642,-1.0292599 l -0.659412,0 0,-0.2859449 1.001719,0 0,1.5235726 -0.292116,0 0,-0.3106734 c -0.175562,0.2370889 -0.455077,0.3758648 -0.776611,0.3758648 -0.675991,0 -1.176851,-0.6085533 -1.176851,-1.6541486 0,-1.0456169 0.50086,-1.6541701 1.176851,-1.6541701 0.596834,0 0.960151,0.4003787 1.068727,0.9231978 l -0.329706,0.077341 z" id="G"></path> <path d="m 15.011508,6.3768302 -0.342307,0 0,-3.1777212 0.567867,0 0.709388,2.618024 0.0126,0 0.696786,-2.618024 0.580448,0 0,3.1777212 -0.342308,0 0,-2.8796267 -0.0084,0 -0.792976,2.8796267 -0.27973,0 -0.79319,-2.8796267 -0.0082,0 0,2.8796267 z" id="M"></path> <path d="m 19.398712,4.5346419 0,-1.3355329 0.342093,0 0,3.1777212 -0.342093,0 0,-1.5562649 -1.385616,0 0,1.5562649 -0.342286,0 0,-3.1777212 0.342286,0 0,1.3355329 1.385616,0 z" id="H"></path> <path d="m 21.719685,4.6612467 0.283859,0 c 0.446647,0 0.989203,-0.016357 0.989203,-0.5880105 0,-0.6045607 -0.584275,-0.5882038 -1.035008,-0.5882038 l -0.238054,0 0,1.1762143 z M 22.270629,3.199109 c 0.809856,0 1.064469,0.502255 1.064469,0.8699414 0,0.3880144 -0.233753,0.8781198 -1.11866,0.8781198 l -0.496753,0 0,1.42966 -0.342092,0 0,-3.1777212 0.893036,0 z" id="P"></path> <path d="m 23.965607,4.6082049 0.0084,0 c 0.129241,-0.2695665 0.296331,-0.5188265 0.638681,-0.5188265 l 0.125156,0 0,0.2899161 C 24.312056,4.3222815 24.090776,4.7715161 23.96562,5.0983103 l 0,1.2785199 -0.325577,0 0,-2.254738 0.325577,0 0,0.4861127 z" id="r"></path> <path d="m 26.298837,3.6074515 -0.325362,0 0,-0.3471437 0.325362,0 0,0.3471437 z m -0.709216,0 -0.325792,0 0,-0.3471437 0.325792,0 0,0.3471437 z m 0.638252,0.5146407 0.325577,0 0,2.2547381 -0.325577,0 0,-0.2329031 c -0.19182,0.1511401 -0.371167,0.2980945 -0.634166,0.2980945 -0.325792,0 -0.588576,-0.1754609 -0.588576,-0.7636646 l 0,-1.5562649 0.325362,0 0,1.474502 c 0,0.2368742 0.04193,0.5840179 0.304718,0.5840179 0.200421,0 0.46342,-0.1920109 0.592662,-0.3429364 l 0,-1.7155835 z" id="u_"></path> <path d="m 27.93941,4.3916588 -0.425573,0 0,1.9851715 -0.325577,0 0,-1.9851715 -0.350522,0 0,-0.2695666 0.350522,0 0,-0.4083639 c 0,-0.3840218 0.221066,-0.5800253 0.609436,-0.5800253 l 0.171175,0.024535 0,0.2737524 c -0.05011,-0.016335 -0.104297,-0.0287 -0.158703,-0.0287 -0.246226,0 -0.296331,0.1226122 -0.296331,0.3062515 l 0,0.4125497 0.425573,0 0,0.2695666 z" id="f"></path> <path d="m 28.711849,4.1220922 0.521698,0 0,0.2695665 -0.521698,0 0,1.4172958 c 0,0.2207321 -0.0041,0.3636938 0.262999,0.3636938 0.09182,0 0.179347,-0.00837 0.258699,-0.028721 l 0,0.2329031 c -0.104297,0.036685 -0.212894,0.065191 -0.325577,0.065191 -0.550944,0 -0.521698,-0.3635005 -0.521698,-0.7760288 l 0,-1.2743341 -0.350522,0 0,-0.2695665 0.350522,0 0,-0.7309723 0.325577,0 0,0.7309723 z" id="t"></path> <path d="m 30.765522,5.0329258 c 0.0084,-0.2899161 -0.150101,-0.7064585 -0.492451,-0.7064585 -0.367296,0 -0.542772,0.3880359 -0.546858,0.7064585 l 1.039309,0 z m -1.047696,0.2695665 c 0,0.6454314 0.279773,0.870156 0.613522,0.870156 0.24214,0 0.446862,-0.1920109 0.563416,-0.388229 l 0.233753,0.1511401 c -0.125156,0.2899161 -0.43396,0.5064623 -0.830501,0.5064623 -0.513526,0 -0.922325,-0.3471437 -0.922325,-1.1925712 0,-0.845406 0.408799,-1.1925497 0.922325,-1.1925497 0.663626,0 0.855876,0.6942873 0.809857,1.2455915 l -1.390047,0 z" id="e"></path> <path d="m 32.815108,4.7511881 c -0.07935,-0.2083892 -0.204507,-0.4328777 -0.46342,-0.4247208 -0.500623,0 -0.596748,0.5391761 -0.596748,0.9229832 0,0.3840433 0.09612,0.9231978 0.596748,0.9231978 0.279772,-0.012364 0.438475,-0.2330963 0.538471,-0.4536351 l 0.262784,0.1144552 c -0.133543,0.3431725 -0.429659,0.6085533 -0.801255,0.6085533 -0.513311,0 -0.922325,-0.3471437 -0.922325,-1.1925712 0,-0.845406 0.409014,-1.1925497 0.922325,-1.1925497 0.379768,0 0.613521,0.2326884 0.738677,0.5716537 l -0.275257,0.1226336 z" id="c"></path> <path d="m 33.837859,4.3549738 c 0.19225,-0.1511402 0.371596,-0.298073 0.634381,-0.298073 0.325577,0 0.588576,0.1754608 0.588576,0.7636645 l 0,1.5562649 -0.325577,0 0,-1.4745019 c 0,-0.2368958 0.04172,-0.584018 -0.304503,-0.584018 -0.200421,0 -0.463205,0.1917963 -0.592877,0.3429364 l 0,1.7155835 -0.325577,0 0,-3.1777212 0.325577,0 0,1.1558648 z" id="h"></path> <path d="m 35.887446,6.3768303 -0.325362,0 0,-2.2547381 0.325362,0 0,0.2328816 c 0.19225,-0.1511401 0.371596,-0.298073 0.634381,-0.298073 0.325577,0 0.588576,0.1754608 0.588576,0.7636646 l 0,1.5562649 -0.325577,0 0,-1.474502 c 0,-0.2368957 0.04172,-0.5840179 -0.304503,-0.5840179 -0.200421,0 -0.463205,0.1917962 -0.592877,0.3429364 l 0,1.7155835 z" id="n"></path> <path d="m 37.945635,6.3768302 -0.325577,0 0,-2.254738 0.325577,0 0,2.254738 z m 0,-2.8266064 -0.325577,0 0,-0.3511148 0.325577,0 0,0.3511148 z" id="i"></path> <path d="m 38.788608,5.167709 0.855661,-1.0456168 0.36321,0 -0.634596,0.7720576 0.730506,1.4826804 -0.350523,0 -0.588361,-1.2254781 -0.375897,0.4534205 0,0.7720576 -0.325362,0 0,-3.1777212 0.325362,0 0,1.9686 z" id="k"></path> </g> <g id="Logotype-2"> <g id="GmbH"> <path d="M 12.915472,8.4051693 C 12.869259,8.2089726 12.78337,8.0215554 12.5448,8.0215554 c -0.226162,0 -0.418734,0.2196802 -0.418734,0.7284608 0,0.5085444 0.192572,0.7284393 0.418734,0.7284393 0.301578,0 0.380951,-0.2888643 0.364371,-0.5431472 l -0.33076,0 0,-0.1509255 0.502322,0 0,0.8039128 -0.146574,0 0,-0.1637191 c -0.08778,0.124952 -0.228269,0.1981072 -0.389359,0.1981072 -0.339146,0 -0.590533,-0.3209341 -0.590533,-0.8726675 0,-0.551755 0.251387,-0.8728822 0.590533,-0.8728822 0.299256,0 0.481334,0.2110939 0.535933,0.4869499 l -0.165261,0.041085 z" id="L21-G"></path> <path d="m 13.432911,9.5882956 -0.163369,0 0,-1.1896303 0.163369,0 0,0.1056543 c 0.100383,-0.08406 0.186271,-0.1402356 0.320481,-0.1402356 0.123478,0 0.21756,0.053879 0.27846,0.1616154 0.106684,-0.088246 0.209152,-0.1593186 0.353641,-0.1616154 0.16339,0 0.295277,0.092646 0.295277,0.4031048 l 0,0.8211068 -0.163391,0 0,-0.7781324 c 0,-0.1249305 0.02099,-0.3081405 -0.152875,-0.3081405 -0.119285,-0.0021 -0.23857,0.081956 -0.307663,0.1574296 l 0,0.9288433 -0.163391,0 0,-0.7781324 c 0,-0.1249305 0.02101,-0.3081405 -0.15266,-0.3081405 -0.14051,0.0044 -0.224076,0.079874 -0.307879,0.1574296 l 0,0.9288433 z" id="L21-m"></path> <path d="m 15.047636,9.2541602 c 0.04621,0.101447 0.157089,0.2219985 0.27216,0.2219985 0.112984,0 0.274267,-0.114262 0.274267,-0.4632732 0,-0.1788095 -0.0483,-0.5022765 -0.276353,-0.5022765 -0.125586,0 -0.219668,0.08846 -0.270074,0.1918177 l 0,0.5517335 z m 0,0.3341355 -0.163391,0 0,-1.676795 0.163391,0 0,0.6100129 c 0.07539,-0.081956 0.177884,-0.1574296 0.288976,-0.1574296 0.198873,0 0.42925,0.1853136 0.42925,0.6529873 0,0.4569838 -0.266096,0.6056124 -0.422949,0.6056124 -0.127908,0 -0.217775,-0.071073 -0.295277,-0.1702231 l 0,0.1358351 z" id="L21-b"></path> <path d="m 16.808741,8.6162633 0,-0.7047626 0.171777,0 0,1.676795 -0.171777,0 0,-0.8211069 -0.695131,0 0,0.8211069 -0.171562,0 0,-1.676795 0.171562,0 0,0.7047626 0.695131,0 z" id="L21-h"></path> </g> <path d="m 17.847835,9.0948416 -0.211475,0 0,-0.2521793 0.211475,0 0,0.2521793 z" id="L2-dot"></path> <g id="ND-Testing"> <path d="m 18.677131,9.5882957 -0.171562,0 0,-1.676795 0.27216,0 0.649133,1.3212796 0.004,0 0,-1.3212796 0.171799,0 0,1.676795 -0.171799,0 -0.7493,-1.5237659 -0.0044,0 0,1.5237659 z" id="L22-N"></path> <path d="m 19.981891,9.4373702 0.161284,0 c 0.406154,-0.00419 0.584017,-0.2154944 0.584017,-0.7024658 0,-0.4288852 -0.167369,-0.6682709 -0.50443,-0.6724782 l -0.240871,0 0,1.374944 z m 0.230377,-1.5258695 c 0.473141,0 0.686723,0.3513295 0.686723,0.8296931 0,0.5345609 -0.213582,0.8471019 -0.730828,0.8471019 l -0.357834,0 0,-1.676795 0.401939,0 z" id="L22-D"></path> <path d="m 21.456535,8.8921408 0,0.1509255 -0.429228,0 0,-0.1509255 0.429228,0 z" id="L22-en-dash"></path> <path d="m 22.274929,8.0624262 -0.4374,0 0,1.5258695 -0.17182,0 0,-1.5258695 -0.437443,0 0,-0.1509255 1.046663,0 0,0.1509255 z" id="L22-T"></path> <path d="m 22.834904,8.8791326 c 0.0041,-0.1528145 -0.07548,-0.3727094 -0.247085,-0.3727094 -0.184293,0 -0.272246,0.2048045 -0.274182,0.3727094 l 0.521267,0 z m -0.525568,0.1423392 c 0,0.3404249 0.140424,0.4590874 0.307729,0.4590874 0.1215,0 0.224076,-0.1012538 0.282568,-0.2048045 l 0.117414,0.079852 c -0.06279,0.1530292 -0.21784,0.2670765 -0.416756,0.2670765 -0.257408,0 -0.46256,-0.1830167 -0.46256,-0.6293106 0,-0.4460792 0.205152,-0.6292891 0.46256,-0.6292891 0.332889,0 0.429229,0.3664199 0.406219,0.6573878 l -0.697174,0 z" id="L22-e"></path> <path d="m 23.789701,8.6636382 c -0.06473,-0.09915 -0.142359,-0.157215 -0.263644,-0.157215 -0.106877,0 -0.207303,0.055961 -0.207303,0.1767058 0,0.2909679 0.609221,0.1637191 0.609221,0.5647417 0,0.2326885 -0.161068,0.374813 -0.378908,0.374813 -0.186229,0 -0.33719,-0.083845 -0.431379,-0.2498824 l 0.129887,-0.08406 c 0.06279,0.1228483 0.163218,0.1918177 0.301492,0.1918177 0.119349,0 0.226011,-0.066866 0.226011,-0.2025076 0,-0.2997689 -0.609005,-0.1574297 -0.609005,-0.5842326 0,-0.2045898 0.163219,-0.329735 0.353748,-0.329735 0.161068,0 0.29504,0.068969 0.385144,0.2069081 l -0.115264,0.092646 z" id="L22-s"></path> <path d="m 24.328172,8.3986653 0.261709,0 0,0.1421245 -0.261709,0 0,0.7479517 c 0,0.1163442 -0.0019,0.1918177 0.132037,0.1918177 0.04602,0 0.0901,-0.0044 0.129672,-0.01509 l 0,0.1228268 c -0.05226,0.019512 -0.106662,0.034388 -0.163434,0.034388 -0.276117,0 -0.261494,-0.1918177 -0.261494,-0.4093942 l 0,-0.6724997 -0.175906,0 0,-0.1421245 0.175906,0 0,-0.3859108 0.163219,0 0,0.3859108 z" id="L22-t"></path> <path d="m 24.847719,9.5882957 -0.163219,0 0,-1.1896304 0.163219,0 0,1.1896304 z m 0,-1.4914814 -0.163219,0 0,-0.1853136 0.163219,0 0,0.1853136 z" id="L22-i"></path> <path d="m 25.21394,9.5882956 -0.163004,0 0,-1.1896303 0.163004,0 0,0.1228483 c 0.09655,-0.079874 0.186658,-0.1574296 0.31848,-0.1574296 0.163434,0 0.295256,0.092646 0.295256,0.4031048 l 0,0.8211068 -0.163434,0 0,-0.7781324 c 0,-0.1249305 0.02107,-0.3081405 -0.152896,-0.3081405 -0.100211,0 -0.232248,0.1012539 -0.297406,0.1811063 l 0,0.9051666 z" id="L22-n"></path> <path d="m 26.462271,8.4913328 c -0.156982,0 -0.255258,0.135835 -0.255258,0.2888642 0,0.1486287 0.08989,0.2800633 0.240635,0.2800633 0.167519,0 0.259558,-0.1184479 0.259558,-0.2823816 0,-0.1551113 -0.0815,-0.2865459 -0.244935,-0.2865459 z m -0.110748,1.023593 c -0.08817,0.017409 -0.21784,0.071288 -0.21784,0.1790241 0,0.1637191 0.234614,0.1723268 0.345361,0.1723268 0.1172,0 0.324502,-0.023698 0.324502,-0.1874172 0,-0.1249305 -0.192464,-0.1400209 -0.280633,-0.146525 l -0.17139,-0.017409 z m 0.619328,-1.0085026 -0.06043,0 c -0.04623,0 -0.07548,0.0021 -0.117414,0.02578 0.04817,0.07337 0.07118,0.1574296 0.07118,0.2456752 0,0.2306062 -0.165369,0.4096089 -0.38923,0.4096089 -0.06709,0 -0.125586,-0.012987 -0.186444,-0.036685 -0.03548,0.030202 -0.09828,0.068969 -0.09828,0.1272488 0,0.1507323 0.770288,-0.038982 0.770288,0.4114979 0,0.08846 -0.02709,0.310459 -0.48987,0.310459 -0.376758,0 -0.493957,-0.1509257 -0.493957,-0.2974508 0,-0.1228483 0.104727,-0.189714 0.200851,-0.2326884 -0.06881,-0.028099 -0.144509,-0.079874 -0.144509,-0.1660374 0,-0.1056543 0.07978,-0.1379172 0.144509,-0.2177912 -0.08365,-0.1012538 -0.127736,-0.1723054 -0.127736,-0.3123477 0,-0.2414894 0.176121,-0.409609 0.408369,-0.409609 0.09204,0 0.175906,0.028099 0.251172,0.08406 0.07548,-0.058065 0.163218,-0.1012538 0.261494,-0.090564 l 0,0.1488434 z" id="L22-g"></path> </g> <path d="m 28.020912,8.8921408 0,0.1509255 -0.756096,0 0,-0.1509255 0.756096,0 z" id="L2-dash-em1"></path> <g id="Systems"> <path d="m 29.269889,8.3640839 c -0.05441,-0.1873957 -0.129887,-0.3425285 -0.339125,-0.3425285 -0.148811,0 -0.286869,0.1228483 -0.286869,0.2865674 0,0.4181952 0.793298,0.2542615 0.793298,0.8405977 0,0.29305 -0.211173,0.4739632 -0.48557,0.4739632 -0.290955,0 -0.498257,-0.1830168 -0.554814,-0.4739632 l 0.165584,-0.041085 c 0.03957,0.1983004 0.186228,0.3708204 0.391381,0.3708204 0.167304,0 0.311814,-0.1316493 0.311814,-0.3104588 0,-0.46557 -0.793298,-0.2714555 -0.793298,-0.8340936 0,-0.2758775 0.209238,-0.4567691 0.469011,-0.4567691 0.257408,0 0.422777,0.1959821 0.48342,0.4374714 l -0.154832,0.049479 z" id="L23-S"></path> <path d="m 29.996739,9.6356705 c -0.06258,0.2048045 -0.165369,0.3643375 -0.395682,0.3643375 -0.0458,0 -0.0815,-0.00859 -0.125586,-0.023698 l 0.02516,-0.1423178 c 0.02946,0.00859 0.06064,0.017173 0.09419,0.017173 0.165369,0 0.21999,-0.1421245 0.261709,-0.2844637 l -0.397617,-1.1680359 0.165154,0 0.31418,0.9288648 0.286869,-0.9288648 0.154832,0 -0.383209,1.2370052 z" id="L32-y"></path> <path d="m 31.07325,8.6636382 c -0.06473,-0.09915 -0.142574,-0.157215 -0.263859,-0.157215 -0.106662,0 -0.207088,0.055961 -0.207088,0.1767058 0,0.2909679 0.609006,0.1637191 0.609006,0.5647417 0,0.2326885 -0.161068,0.374813 -0.378908,0.374813 -0.186229,0 -0.336975,-0.083845 -0.431164,-0.2498824 l 0.129672,-0.08406 c 0.06301,0.1228483 0.163433,0.1918177 0.301492,0.1918177 0.119349,0 0.226011,-0.066866 0.226011,-0.2025076 0,-0.2997689 -0.609005,-0.1574297 -0.609005,-0.5842326 0,-0.2045898 0.163434,-0.329735 0.353748,-0.329735 0.161283,0 0.295255,0.068969 0.385359,0.2069081 l -0.115264,0.092646 z" id="L23-s"></path> <path d="m 31.611506,8.3986653 0.261709,0 0,0.1421245 -0.261709,0 0,0.7479517 c 0,0.1163442 -0.0019,0.1918177 0.132037,0.1918177 0.04623,0 0.0901,-0.0044 0.129672,-0.01509 l 0,0.1228268 c -0.05226,0.019512 -0.106662,0.034388 -0.163219,0.034388 -0.276332,0 -0.261709,-0.1918177 -0.261709,-0.4093942 l 0,-0.6724997 -0.175906,0 0,-0.1421245 0.175906,0 0,-0.3859108 0.163219,0 0,0.3859108 z" id="L23-t"></path> <path d="m 32.631461,8.8791326 c 0.0041,-0.1528145 -0.07527,-0.3727094 -0.247086,-0.3727094 -0.184293,0 -0.272031,0.2048045 -0.274182,0.3727094 l 0.521268,0 z m -0.525569,0.1423392 c 0,0.3404249 0.140424,0.4590874 0.307944,0.4590874 0.121285,0 0.223861,-0.1012538 0.282353,-0.2048045 l 0.117414,0.079852 c -0.06301,0.1530292 -0.21784,0.2670765 -0.416541,0.2670765 -0.257408,0 -0.46299,-0.1830167 -0.46299,-0.6293106 0,-0.4460792 0.205582,-0.6292891 0.46299,-0.6292891 0.332674,0 0.429014,0.3664199 0.406219,0.6573878 l -0.697389,0 z" id="L23-e"></path> <path d="m 33.146707,9.5882956 -0.163219,0 0,-1.1896303 0.163219,0 0,0.1056543 c 0.10064,-0.08406 0.186443,-0.1402356 0.320416,-0.1402356 0.12365,0 0.217624,0.053879 0.278482,0.1616154 0.106662,-0.088246 0.209238,-0.1593186 0.353748,-0.1616154 0.163433,0 0.295255,0.092646 0.295255,0.4031048 l 0,0.8211068 -0.163433,0 0,-0.7781324 c 0,-0.1249305 0.02107,-0.3081405 -0.152682,-0.3081405 -0.119349,-0.0021 -0.238699,0.081956 -0.307513,0.1574296 l 0,0.9288433 -0.163434,0 0,-0.7781324 c 0,-0.1249305 0.02086,-0.3081405 -0.152896,-0.3081405 -0.140424,0.0044 -0.223861,0.079874 -0.307943,0.1574296 l 0,0.9288433 z" id="L23-m"></path> <path d="m 35.196939,8.6636382 c -0.06473,-0.09915 -0.142359,-0.157215 -0.263644,-0.157215 -0.106877,0 -0.207303,0.055961 -0.207303,0.1767058 0,0.2909679 0.609221,0.1637191 0.609221,0.5647417 0,0.2326885 -0.161068,0.374813 -0.379123,0.374813 -0.186014,0 -0.33676,-0.083845 -0.431164,-0.2498824 l 0.129887,-0.08406 c 0.06279,0.1228483 0.163218,0.1918177 0.301277,0.1918177 0.119564,0 0.226226,-0.066866 0.226226,-0.2025076 0,-0.2997689 -0.60922,-0.1574297 -0.60922,-0.5842326 0,-0.2045898 0.163434,-0.329735 0.353748,-0.329735 0.161283,0 0.295255,0.068969 0.385359,0.2069081 l -0.115264,0.092646 z" id="L23-s2"></path> </g> <path d="m 36.519246,8.8921408 0,0.1509255 -0.756311,0 0,-0.1509255 0.756311,0 z" id="L2-dash-em2"></path> <g id="Services"> <path d="m 37.828651,8.3640839 c -0.05462,-0.1873957 -0.129887,-0.3425285 -0.33934,-0.3425285 -0.148596,0 -0.286654,0.1228483 -0.286654,0.2865674 0,0.4181952 0.793298,0.2542615 0.793298,0.8405977 0,0.29305 -0.211388,0.4739632 -0.485785,0.4739632 -0.290955,0 -0.498042,-0.1830168 -0.554814,-0.4739632 l 0.165584,-0.041085 c 0.03978,0.1983004 0.186443,0.3708204 0.391381,0.3708204 0.167519,0 0.312029,-0.1316493 0.312029,-0.3104588 0,-0.46557 -0.793298,-0.2714555 -0.793298,-0.8340936 0,-0.2758775 0.209023,-0.4567691 0.468581,-0.4567691 0.257623,0 0.422992,0.1959821 0.483635,0.4374714 l -0.154617,0.049479 z" id="L24-S"></path> <path d="m 38.794199,8.8791326 c 0.0041,-0.1528145 -0.07548,-0.3727094 -0.247085,-0.3727094 -0.184293,0 -0.272031,0.2048045 -0.274182,0.3727094 l 0.521267,0 z m -0.525353,0.1423392 c 0,0.3404249 0.140209,0.4590874 0.307514,0.4590874 0.1215,0 0.224076,-0.1012538 0.282568,-0.2048045 l 0.117414,0.079852 c -0.06279,0.1530292 -0.21784,0.2670765 -0.416756,0.2670765 -0.257408,0 -0.46256,-0.1830167 -0.46256,-0.6293106 0,-0.4460792 0.205152,-0.6292891 0.46256,-0.6292891 0.332889,0 0.429229,0.3664199 0.406219,0.6573878 l -0.696959,0 z" id="L24-e"></path> <path d="m 39.313747,8.6550518 0.0041,0 C 39.382561,8.5129273 39.466643,8.381278 39.638248,8.381278 l 0.06279,0 0,0.1530291 c -0.213539,-0.029988 -0.324716,0.2068867 -0.387294,0.3794282 l 0,0.6745603 -0.163434,0 0,-1.1896304 0.163434,0 0,0.2563866 z" id="L24-r"></path> <path d="m 40.331336,9.5882957 -0.238484,0 -0.335039,-1.1896304 0.159133,0 0.297191,1.0345191 0.289019,-1.0345191 0.155047,0 -0.326867,1.1896304 z" id="L24-v"></path> <path d="m 40.915826,9.5882957 -0.163219,0 0,-1.1896304 0.163219,0 0,1.1896304 z m 0,-1.4914814 -0.163219,0 0,-0.1853136 0.163219,0 0,0.1853136 z" id="L24-i"></path> <path d="M 41.78482,8.7305039 C 41.74525,8.6206638 41.682244,8.5020227 41.552357,8.5064232 c -0.251172,0 -0.299341,0.2844638 -0.299341,0.4869499 0,0.2027223 0.04817,0.4871861 0.299341,0.4871861 0.140209,-0.0065 0.21999,-0.1228483 0.270096,-0.2391926 l 0.131822,0.060383 c -0.06666,0.1808917 -0.215474,0.320934 -0.401918,0.320934 -0.257408,0 -0.462345,-0.1830167 -0.462345,-0.6293106 0,-0.4460792 0.204937,-0.6292891 0.462345,-0.6292891 0.190744,0 0.307944,0.1228483 0.370736,0.3018725 l -0.138273,0.064547 z" id="L24-c"></path> <path d="m 42.708434,8.8791326 c 0.0043,-0.1528145 -0.07548,-0.3727094 -0.24687,-0.3727094 -0.184293,0 -0.272246,0.2048045 -0.274397,0.3727094 l 0.521267,0 z m -0.525353,0.1423392 c 0,0.3404249 0.140209,0.4590874 0.307514,0.4590874 0.1215,0 0.224076,-0.1012538 0.282783,-0.2048045 l 0.117199,0.079852 c -0.06258,0.1530292 -0.217625,0.2670765 -0.416756,0.2670765 -0.257408,0 -0.462345,-0.1830167 -0.462345,-0.6293106 0,-0.4460792 0.204937,-0.6292891 0.462345,-0.6292891 0.333104,0 0.429229,0.3664199 0.406219,0.6573878 l -0.696959,0 z" id="L24-e2"></path> <path d="m 43.621728,8.6636382 c -0.06516,-0.09915 -0.142359,-0.157215 -0.263644,-0.157215 -0.107092,0 -0.207518,0.055961 -0.207518,0.1767058 0,0.2909679 0.609436,0.1637191 0.609436,0.5647417 0,0.2326885 -0.161283,0.374813 -0.379123,0.374813 -0.186229,0 -0.336975,-0.083845 -0.431164,-0.2498824 l 0.129887,-0.08406 c 0.06258,0.1228483 0.163003,0.1918177 0.301277,0.1918177 0.119564,0 0.226226,-0.066866 0.226226,-0.2025076 0,-0.2997689 -0.60922,-0.1574297 -0.60922,-0.5842326 0,-0.2045898 0.163219,-0.329735 0.353748,-0.329735 0.161068,0 0.29504,0.068969 0.385144,0.2069081 l -0.115049,0.092646 z" id="L24-s"></path> </g> </g> </g> <g id="gmh-signet" fill="#df0029" stroke="none" transform="translate(-13,-0.5)"> <path id="gmh-signet" d="M0,3h1v1h1v-1h2v-1h-1v2h2v-1h-1v2h1v-1h1v-1h2v-1h-1v4h1v-1h-1v-1h1v-1h1v1h1v-1h2v-1h-1v2h1v-1h1v9h-13v-9z m1,-1v-1h1v1h-1z m4,-1v-1h1v1h-1z m4,0h1v1h-1v-1z"></path> </g> </g>
</svg>
